<?xml version="1.0" encoding="UTF-8" standalone="no"?>
<!-- Created with Inkscape (http://www.inkscape.org/) -->

<svg
   width="100mm"
   height="56.70681mm"
   viewBox="0 0 377.95276 214.32496"
   version="1.1"
   id="svg1"
   xml:space="preserve"
   inkscape:version="1.3 (0e150ed6c4, 2023-07-21)"
   sodipodi:docname="TechyTech2.svg"
   xmlns:inkscape="http://www.inkscape.org/namespaces/inkscape"
   xmlns:sodipodi="http://sodipodi.sourceforge.net/DTD/sodipodi-0.dtd"
   xmlns:xlink="http://www.w3.org/1999/xlink"
   xmlns="http://www.w3.org/2000/svg"
   xmlns:svg="http://www.w3.org/2000/svg"><sodipodi:namedview
     id="namedview1"
     pagecolor="#505050"
     bordercolor="#eeeeee"
     borderopacity="1"
     inkscape:showpageshadow="0"
     inkscape:pageopacity="0"
     inkscape:pagecheckerboard="0"
     inkscape:deskcolor="#505050"
     inkscape:document-units="mm"
     inkscape:zoom="2.8284271"
     inkscape:cx="293.09576"
     inkscape:cy="146.54788"
     inkscape:window-width="2400"
     inkscape:window-height="1271"
     inkscape:window-x="-9"
     inkscape:window-y="-9"
     inkscape:window-maximized="1"
     inkscape:current-layer="layer1"
     showguides="true" /><defs
     id="defs1"><linearGradient
       id="linearGradient35"
       inkscape:collect="always"><stop
         style="stop-color:#2af2ff;stop-opacity:1;"
         offset="0"
         id="stop36" /><stop
         style="stop-color:#2abaff;stop-opacity:1;"
         offset="0.26689023"
         id="stop43" /><stop
         style="stop-color:#39cbff;stop-opacity:1;"
         offset="0.46173933"
         id="stop44" /><stop
         style="stop-color:#2a97ff;stop-opacity:1;"
         offset="0.53800046"
         id="stop38" /><stop
         style="stop-color:#39b7ff;stop-opacity:1;"
         offset="0.68109441"
         id="stop42" /><stop
         style="stop-color:#2af6ff;stop-opacity:1;"
         offset="1"
         id="stop37" /></linearGradient><filter
       inkscape:collect="always"
       style="color-interpolation-filters:sRGB"
       id="filter291"
       x="-0.25813776"
       y="-0.43510111"
       width="1.5162755"
       height="1.8702022"><feGaussianBlur
         inkscape:collect="always"
         stdDeviation="11.200465"
         id="feGaussianBlur291" /></filter><filter
       inkscape:collect="always"
       style="color-interpolation-filters:sRGB"
       id="filter25"
       x="-0.064458456"
       y="-0.063687947"
       width="1.1289169"
       height="1.1273759"><feGaussianBlur
         inkscape:collect="always"
         stdDeviation="9.1877431"
         id="feGaussianBlur25" /></filter><linearGradient
       inkscape:collect="always"
       xlink:href="#linearGradient35"
       id="linearGradient5"
       gradientUnits="userSpaceOnUse"
       x1="390.82877"
       y1="403.97656"
       x2="912.52014"
       y2="403.97656" /><linearGradient
       inkscape:collect="always"
       xlink:href="#linearGradient35"
       id="linearGradient6"
       gradientUnits="userSpaceOnUse"
       x1="390.82877"
       y1="403.97656"
       x2="912.52014"
       y2="403.97656" /><linearGradient
       inkscape:collect="always"
       xlink:href="#linearGradient35"
       id="linearGradient7"
       gradientUnits="userSpaceOnUse"
       x1="390.82877"
       y1="403.97656"
       x2="912.52014"
       y2="403.97656" /><linearGradient
       inkscape:collect="always"
       xlink:href="#linearGradient35"
       id="linearGradient8"
       gradientUnits="userSpaceOnUse"
       x1="390.82877"
       y1="403.97656"
       x2="912.52014"
       y2="403.97656" /><filter
       inkscape:collect="always"
       style="color-interpolation-filters:sRGB"
       id="filter8"
       x="-0.048469382"
       y="-0.16569774"
       width="1.0969388"
       height="1.3313955"><feGaussianBlur
         inkscape:collect="always"
         stdDeviation="3.9697561"
         id="feGaussianBlur8" /></filter></defs><g
     inkscape:label="Layer 1"
     inkscape:groupmode="layer"
     id="layer1"
     transform="translate(-238.80683,-199.02753)"><g
       id="g8"><g
         id="g25"
         style="fill:#f15cff;fill-opacity:1;stroke:none;stroke-opacity:1;filter:url(#filter25)"
         transform="matrix(0.54908702,0,0,0.54908702,107.6811,89.744098)"><path
           id="path5"
           style="fill:#f15cff;fill-opacity:1;stroke:none;stroke-width:0.383778;stroke-opacity:1"
           d="m 460.96095,315.78126 a 86.727081,86.727081 0 0 0 -86.72852,86.72656 86.727081,86.727081 0 0 0 86.72852,86.72852 86.727081,86.727081 0 0 0 77.80859,-48.47266 h -12.9414 a 75.321877,75.321877 0 0 1 -64.86719,37.06641 75.321877,75.321877 0 0 1 -75.32227,-75.32227 75.321877,75.321877 0 0 1 75.32227,-75.32031 75.321877,75.321877 0 0 1 67.5957,42.29297 h 12.41211 a 86.727081,86.727081 0 0 0 -80.00781,-53.69922 z" /><path
           style="color:#000000;fill:#f15cff;fill-opacity:1;stroke:none;stroke-opacity:1;-inkscape-stroke:none"
           d="m 536.73633,289.65625 v 36.07031 l -19.81641,19.81836 2.47461,2.47461 20.8418,-20.8418 v -37.52148 z"
           id="path6" /><path
           style="color:#000000;fill:#f15cff;fill-opacity:1;stroke:none;stroke-opacity:1;-inkscape-stroke:none"
           d="m 480.35742,234.75781 v 31.35156 l -20.19726,20.19727 v 32.80078 h 3.5 v -31.35156 l 20.19726,-20.19727 v -32.80078 z"
           id="path7" /><path
           style="color:#000000;fill:#f15cff;fill-opacity:1;stroke:none;stroke-opacity:1;-inkscape-stroke:none"
           d="m 373.67187,295.58398 v 28.76368 l 24.03516,24.03515 2.47461,-2.47461 -23.00977,-23.00976 v -27.31446 z"
           id="path8" /><path
           style="color:#000000;fill:#f15cff;fill-opacity:1;stroke:none;stroke-opacity:1;-inkscape-stroke:none"
           d="m 274.53516,380.65039 v 3.5 h 55.05664 l 19.82617,19.82617 h 29.62305 v -3.5 h -28.17383 l -19.82617,-19.82617 z"
           id="path9" /><path
           style="color:#000000;fill:#f15cff;fill-opacity:1;stroke:none;stroke-opacity:1;-inkscape-stroke:none"
           d="m 333.60156,426.41992 v 3.5 h 47.99805 v -3.5 z"
           id="path10" /><path
           style="color:#000000;fill:#f15cff;fill-opacity:1;stroke:none;stroke-opacity:1;-inkscape-stroke:none"
           d="m 395.09375,452.5957 -24.67383,24.67383 h -62.47851 v 3.5 h 63.92773 l 25.69922,-25.69922 z"
           id="path11" /><path
           style="color:#000000;fill:#f15cff;fill-opacity:1;stroke:none;stroke-opacity:1;-inkscape-stroke:none"
           d="m 420.64258,475.60156 -30.36133,17.5293 v 52.41797 h 3.5 v -50.39649 l 28.61133,-16.51953 z"
           id="path12" /><path
           style="color:#000000;fill:#f15cff;fill-opacity:1;stroke:none;stroke-opacity:1;-inkscape-stroke:none"
           d="m 447.0918,487.81055 v 59.87695 h 3.5 v -59.87695 z"
           id="path13" /><path
           style="color:#000000;fill:#f15cff;fill-opacity:1;stroke:none;stroke-opacity:1;-inkscape-stroke:none"
           d="m 498.07617,475.16797 -2.47461,2.47461 25.03125,25.02929 v 50.95508 h 3.5 v -52.40429 z"
           id="path14" /><path
           style="color:#000000;fill:#f15cff;fill-opacity:1;stroke:none;stroke-opacity:1;-inkscape-stroke:none"
           d="m 528.9668,452.83203 -2.47657,2.47461 22.01758,22.01758 h 40.76172 v -3.5 h -39.3125 z"
           id="path15" /><path
           style="color:#000000;fill:#f15cff;fill-opacity:1;stroke:none;stroke-opacity:1;-inkscape-stroke:none"
           d="m 375.0918,281.94336 c -4.23988,0 -7.71289,3.47301 -7.71289,7.71289 -1e-5,4.23988 3.47301,7.71485 7.71289,7.71484 4.23988,1e-5 7.71484,-3.47496 7.71484,-7.71484 0,-4.23988 -3.47497,-7.71289 -7.71484,-7.71289 z m 0,3.5 c 2.34833,0 4.21484,1.86455 4.21484,4.21289 0,2.34834 -1.8665,4.21484 -4.21484,4.21484 -2.34834,0 -4.21289,-1.8665 -4.21289,-4.21484 0,-2.34834 1.86455,-4.21289 4.21289,-4.21289 z"
           id="path16" /><path
           style="color:#000000;fill:#f15cff;fill-opacity:1;stroke:none;stroke-opacity:1;-inkscape-stroke:none"
           d="m 482.10742,221.07812 c -4.23987,10e-6 -7.71484,3.47498 -7.71484,7.71485 0,4.23987 3.47497,7.71484 7.71484,7.71484 4.23988,0 7.71485,-3.47496 7.71485,-7.71484 -10e-6,-4.23988 -3.47497,-7.71485 -7.71485,-7.71485 z m 0,3.5 c 2.34834,0 4.21484,1.86651 4.21485,4.21485 0,2.34834 -1.86651,4.21484 -4.21485,4.21484 -2.34834,0 -4.21484,-1.8665 -4.21484,-4.21484 0,-2.34834 1.86651,-4.21484 4.21484,-4.21485 z"
           id="path17" /><path
           style="color:#000000;fill:#f15cff;fill-opacity:1;stroke:none;stroke-opacity:1;-inkscape-stroke:none"
           d="m 538.48633,275.97852 c -4.23988,0 -7.71485,3.47496 -7.71485,7.71484 10e-6,4.23987 3.47498,7.71288 7.71485,7.71289 4.23987,0 7.71484,-3.47301 7.71484,-7.71289 0,-4.23988 -3.47496,-7.71485 -7.71484,-7.71484 z m 0,3.5 c 2.34834,-10e-6 4.21484,1.8665 4.21484,4.21484 0,2.34834 -1.8665,4.21289 -4.21484,4.21289 -2.34834,0 -4.21484,-1.86456 -4.21485,-4.21289 0,-2.34834 1.86651,-4.21484 4.21485,-4.21484 z"
           id="path18" /><path
           style="color:#000000;fill:#f15cff;fill-opacity:1;stroke:none;stroke-opacity:1;-inkscape-stroke:none"
           d="m 595.23437,467.85937 c -4.23987,0 -7.71483,3.47497 -7.71484,7.71485 0,4.23988 3.47496,7.71289 7.71484,7.71289 4.23989,0 7.7129,-3.47301 7.7129,-7.71289 -10e-6,-4.23988 -3.47302,-7.71485 -7.7129,-7.71485 z m 0,3.5 c 2.34834,0 4.21289,1.86651 4.2129,4.21485 0,2.34834 -1.86455,4.21289 -4.2129,4.21289 -2.34834,0 -4.21484,-1.86455 -4.21484,-4.21289 0,-2.34834 1.86651,-4.21485 4.21484,-4.21485 z"
           id="path19" /><path
           style="color:#000000;fill:#f15cff;fill-opacity:1;stroke:none;stroke-opacity:1;-inkscape-stroke:none"
           d="m 522.38281,551.87695 c -4.23987,1e-5 -7.71484,3.47497 -7.71484,7.71485 0,4.23987 3.47497,7.71484 7.71484,7.71484 4.23988,0 7.71484,-3.47497 7.71485,-7.71484 0,-4.23988 -3.47497,-7.71485 -7.71485,-7.71485 z m 0,3.5 c 2.34834,0 4.21485,1.86651 4.21485,4.21485 -10e-6,2.34833 -1.86651,4.21484 -4.21485,4.21484 -2.34833,0 -4.21484,-1.86651 -4.21484,-4.21484 0,-2.34834 1.8665,-4.21484 4.21484,-4.21485 z"
           id="path20" /><path
           style="color:#000000;fill:#f15cff;fill-opacity:1;stroke:none;stroke-opacity:1;-inkscape-stroke:none"
           d="m 448.8418,545.9375 c -4.23988,0 -7.71485,3.47496 -7.71485,7.71484 0,4.23988 3.47497,7.71485 7.71485,7.71485 4.23987,-1e-5 7.71484,-3.47497 7.71484,-7.71485 0,-4.23987 -3.47497,-7.71483 -7.71484,-7.71484 z m 0,3.5 c 2.34833,0 4.21484,1.86651 4.21484,4.21484 0,2.34834 -1.86651,4.21484 -4.21484,4.21485 -2.34834,0 -4.21485,-1.86651 -4.21485,-4.21485 0,-2.34834 1.86651,-4.21484 4.21485,-4.21484 z"
           id="path21" /><path
           style="color:#000000;fill:#f15cff;fill-opacity:1;stroke:none;stroke-opacity:1;-inkscape-stroke:none"
           d="m 392.03125,543.79883 c -4.23988,0 -7.71289,3.47496 -7.71289,7.71484 0,4.23988 3.47301,7.71485 7.71289,7.71485 4.23988,-10e-6 7.71485,-3.47497 7.71484,-7.71485 1e-5,-4.23987 -3.47496,-7.71484 -7.71484,-7.71484 z m 0,3.5 c 2.34834,0 4.21484,1.8665 4.21484,4.21484 0,2.34834 -1.8665,4.21484 -4.21484,4.21485 -2.34834,0 -4.21289,-1.86651 -4.21289,-4.21485 0,-2.34834 1.86455,-4.21484 4.21289,-4.21484 z"
           id="path22" /><path
           style="color:#000000;fill:#f15cff;fill-opacity:1;stroke:none;stroke-opacity:1;-inkscape-stroke:none"
           d="m 301.97656,471.30469 c -4.23987,0 -7.71484,3.47497 -7.71484,7.71484 0,4.23987 3.47497,7.71289 7.71484,7.71289 4.23988,0 7.71484,-3.47301 7.71485,-7.71289 0,-4.23988 -3.47497,-7.71484 -7.71485,-7.71484 z m 0,3.5 c 2.34834,0 4.21485,1.8665 4.21485,4.21484 -1e-5,2.34834 -1.86651,4.21289 -4.21485,4.21289 -2.34833,0 -4.21484,-1.86455 -4.21484,-4.21289 0,-2.34834 1.8665,-4.21484 4.21484,-4.21484 z"
           id="path23" /><path
           style="color:#000000;fill:#f15cff;fill-opacity:1;stroke:none;stroke-opacity:1;-inkscape-stroke:none"
           d="m 327.63867,420.45508 c -4.23988,0 -7.71484,3.47496 -7.71484,7.71484 0,4.23988 3.47496,7.71485 7.71484,7.71485 4.23988,-10e-6 7.71289,-3.47497 7.71289,-7.71485 0,-4.23987 -3.47301,-7.71484 -7.71289,-7.71484 z m 0,3.5 c 2.34834,0 4.21289,1.8665 4.21289,4.21484 0,2.34834 -1.86455,4.21484 -4.21289,4.21485 -2.34834,0 -4.21484,-1.86651 -4.21484,-4.21485 0,-2.34834 1.8665,-4.21484 4.21484,-4.21484 z"
           id="path24" /><path
           style="color:#000000;fill:#f15cff;fill-opacity:1;stroke:none;stroke-opacity:1;-inkscape-stroke:none"
           d="m 268.57227,374.6875 c -4.23988,0 -7.71484,3.47301 -7.71485,7.71289 0,4.23988 3.47496,7.71485 7.71485,7.71484 4.23988,10e-6 7.71289,-3.47496 7.71289,-7.71484 -1e-5,-4.23988 -3.47302,-7.71289 -7.71289,-7.71289 z m 0,3.5 c 2.34833,0 4.21288,1.86455 4.21289,4.21289 0,2.34834 -1.86455,4.21485 -4.21289,4.21484 -2.34835,10e-6 -4.21485,-1.8665 -4.21485,-4.21484 0,-2.34834 1.86651,-4.21289 4.21485,-4.21289 z"
           id="path25" /></g><g
         id="g5"
         transform="matrix(0.54908702,0,0,0.54908702,107.6811,89.744098)"><path
           id="path194885"
           style="fill:#ffffff;stroke-width:0.383778"
           d="m 460.96095,315.78126 a 86.727081,86.727081 0 0 0 -86.72852,86.72656 86.727081,86.727081 0 0 0 86.72852,86.72852 86.727081,86.727081 0 0 0 77.80859,-48.47266 h -12.9414 a 75.321877,75.321877 0 0 1 -64.86719,37.06641 75.321877,75.321877 0 0 1 -75.32227,-75.32227 75.321877,75.321877 0 0 1 75.32227,-75.32031 75.321877,75.321877 0 0 1 67.5957,42.29297 h 12.41211 a 86.727081,86.727081 0 0 0 -80.00781,-53.69922 z" /><path
           style="color:#000000;fill:#ffffff;-inkscape-stroke:none"
           d="m 536.73633,289.65625 v 36.07031 l -19.81641,19.81836 2.47461,2.47461 20.8418,-20.8418 v -37.52148 z"
           id="path194886" /><path
           style="color:#000000;fill:#ffffff;-inkscape-stroke:none"
           d="m 480.35742,234.75781 v 31.35156 l -20.19726,20.19727 v 32.80078 h 3.5 v -31.35156 l 20.19726,-20.19727 v -32.80078 z"
           id="path194887" /><path
           style="color:#000000;fill:#ffffff;-inkscape-stroke:none"
           d="m 373.67187,295.58398 v 28.76368 l 24.03516,24.03515 2.47461,-2.47461 -23.00977,-23.00976 v -27.31446 z"
           id="path194888" /><path
           style="color:#000000;fill:#ffffff;-inkscape-stroke:none"
           d="m 274.53516,380.65039 v 3.5 h 55.05664 l 19.82617,19.82617 h 29.62305 v -3.5 h -28.17383 l -19.82617,-19.82617 z"
           id="path194889" /><path
           style="color:#000000;fill:#ffffff;-inkscape-stroke:none"
           d="m 333.60156,426.41992 v 3.5 h 47.99805 v -3.5 z"
           id="path194890" /><path
           style="color:#000000;fill:#ffffff;-inkscape-stroke:none"
           d="m 395.09375,452.5957 -24.67383,24.67383 h -62.47851 v 3.5 h 63.92773 l 25.69922,-25.69922 z"
           id="path194891" /><path
           style="color:#000000;fill:#ffffff;-inkscape-stroke:none"
           d="m 420.64258,475.60156 -30.36133,17.5293 v 52.41797 h 3.5 v -50.39649 l 28.61133,-16.51953 z"
           id="path194892" /><path
           style="color:#000000;fill:#ffffff;-inkscape-stroke:none"
           d="m 447.0918,487.81055 v 59.87695 h 3.5 v -59.87695 z"
           id="path194893" /><path
           style="color:#000000;fill:#ffffff;-inkscape-stroke:none"
           d="m 498.07617,475.16797 -2.47461,2.47461 25.03125,25.02929 v 50.95508 h 3.5 v -52.40429 z"
           id="path194894" /><path
           style="color:#000000;fill:#ffffff;-inkscape-stroke:none"
           d="m 528.9668,452.83203 -2.47657,2.47461 22.01758,22.01758 h 40.76172 v -3.5 h -39.3125 z"
           id="path194895" /><path
           style="color:#000000;fill:#ffffff;-inkscape-stroke:none"
           d="m 375.0918,281.94336 c -4.23988,0 -7.71289,3.47301 -7.71289,7.71289 -1e-5,4.23988 3.47301,7.71485 7.71289,7.71484 4.23988,1e-5 7.71484,-3.47496 7.71484,-7.71484 0,-4.23988 -3.47497,-7.71289 -7.71484,-7.71289 z m 0,3.5 c 2.34833,0 4.21484,1.86455 4.21484,4.21289 0,2.34834 -1.8665,4.21484 -4.21484,4.21484 -2.34834,0 -4.21289,-1.8665 -4.21289,-4.21484 0,-2.34834 1.86455,-4.21289 4.21289,-4.21289 z"
           id="path194896" /><path
           style="color:#000000;fill:#ffffff;-inkscape-stroke:none"
           d="m 482.10742,221.07812 c -4.23987,10e-6 -7.71484,3.47498 -7.71484,7.71485 0,4.23987 3.47497,7.71484 7.71484,7.71484 4.23988,0 7.71485,-3.47496 7.71485,-7.71484 -10e-6,-4.23988 -3.47497,-7.71485 -7.71485,-7.71485 z m 0,3.5 c 2.34834,0 4.21484,1.86651 4.21485,4.21485 0,2.34834 -1.86651,4.21484 -4.21485,4.21484 -2.34834,0 -4.21484,-1.8665 -4.21484,-4.21484 0,-2.34834 1.86651,-4.21484 4.21484,-4.21485 z"
           id="circle194896" /><path
           style="color:#000000;fill:#ffffff;-inkscape-stroke:none"
           d="m 538.48633,275.97852 c -4.23988,0 -7.71485,3.47496 -7.71485,7.71484 10e-6,4.23987 3.47498,7.71288 7.71485,7.71289 4.23987,0 7.71484,-3.47301 7.71484,-7.71289 0,-4.23988 -3.47496,-7.71485 -7.71484,-7.71484 z m 0,3.5 c 2.34834,-10e-6 4.21484,1.8665 4.21484,4.21484 0,2.34834 -1.8665,4.21289 -4.21484,4.21289 -2.34834,0 -4.21484,-1.86456 -4.21485,-4.21289 0,-2.34834 1.86651,-4.21484 4.21485,-4.21484 z"
           id="circle194897" /><path
           style="color:#000000;fill:#ffffff;-inkscape-stroke:none"
           d="m 595.23437,467.85937 c -4.23987,0 -7.71483,3.47497 -7.71484,7.71485 0,4.23988 3.47496,7.71289 7.71484,7.71289 4.23989,0 7.7129,-3.47301 7.7129,-7.71289 -10e-6,-4.23988 -3.47302,-7.71485 -7.7129,-7.71485 z m 0,3.5 c 2.34834,0 4.21289,1.86651 4.2129,4.21485 0,2.34834 -1.86455,4.21289 -4.2129,4.21289 -2.34834,0 -4.21484,-1.86455 -4.21484,-4.21289 0,-2.34834 1.86651,-4.21485 4.21484,-4.21485 z"
           id="circle194898" /><path
           style="color:#000000;fill:#ffffff;-inkscape-stroke:none"
           d="m 522.38281,551.87695 c -4.23987,1e-5 -7.71484,3.47497 -7.71484,7.71485 0,4.23987 3.47497,7.71484 7.71484,7.71484 4.23988,0 7.71484,-3.47497 7.71485,-7.71484 0,-4.23988 -3.47497,-7.71485 -7.71485,-7.71485 z m 0,3.5 c 2.34834,0 4.21485,1.86651 4.21485,4.21485 -10e-6,2.34833 -1.86651,4.21484 -4.21485,4.21484 -2.34833,0 -4.21484,-1.86651 -4.21484,-4.21484 0,-2.34834 1.8665,-4.21484 4.21484,-4.21485 z"
           id="circle194899" /><path
           style="color:#000000;fill:#ffffff;-inkscape-stroke:none"
           d="m 448.8418,545.9375 c -4.23988,0 -7.71485,3.47496 -7.71485,7.71484 0,4.23988 3.47497,7.71485 7.71485,7.71485 4.23987,-1e-5 7.71484,-3.47497 7.71484,-7.71485 0,-4.23987 -3.47497,-7.71483 -7.71484,-7.71484 z m 0,3.5 c 2.34833,0 4.21484,1.86651 4.21484,4.21484 0,2.34834 -1.86651,4.21484 -4.21484,4.21485 -2.34834,0 -4.21485,-1.86651 -4.21485,-4.21485 0,-2.34834 1.86651,-4.21484 4.21485,-4.21484 z"
           id="circle194900" /><path
           style="color:#000000;fill:#ffffff;-inkscape-stroke:none"
           d="m 392.03125,543.79883 c -4.23988,0 -7.71289,3.47496 -7.71289,7.71484 0,4.23988 3.47301,7.71485 7.71289,7.71485 4.23988,-10e-6 7.71485,-3.47497 7.71484,-7.71485 1e-5,-4.23987 -3.47496,-7.71484 -7.71484,-7.71484 z m 0,3.5 c 2.34834,0 4.21484,1.8665 4.21484,4.21484 0,2.34834 -1.8665,4.21484 -4.21484,4.21485 -2.34834,0 -4.21289,-1.86651 -4.21289,-4.21485 0,-2.34834 1.86455,-4.21484 4.21289,-4.21484 z"
           id="circle194901" /><path
           style="color:#000000;fill:#ffffff;-inkscape-stroke:none"
           d="m 301.97656,471.30469 c -4.23987,0 -7.71484,3.47497 -7.71484,7.71484 0,4.23987 3.47497,7.71289 7.71484,7.71289 4.23988,0 7.71484,-3.47301 7.71485,-7.71289 0,-4.23988 -3.47497,-7.71484 -7.71485,-7.71484 z m 0,3.5 c 2.34834,0 4.21485,1.8665 4.21485,4.21484 -1e-5,2.34834 -1.86651,4.21289 -4.21485,4.21289 -2.34833,0 -4.21484,-1.86455 -4.21484,-4.21289 0,-2.34834 1.8665,-4.21484 4.21484,-4.21484 z"
           id="circle194902" /><path
           style="color:#000000;fill:#ffffff;-inkscape-stroke:none"
           d="m 327.63867,420.45508 c -4.23988,0 -7.71484,3.47496 -7.71484,7.71484 0,4.23988 3.47496,7.71485 7.71484,7.71485 4.23988,-10e-6 7.71289,-3.47497 7.71289,-7.71485 0,-4.23987 -3.47301,-7.71484 -7.71289,-7.71484 z m 0,3.5 c 2.34834,0 4.21289,1.8665 4.21289,4.21484 0,2.34834 -1.86455,4.21484 -4.21289,4.21485 -2.34834,0 -4.21484,-1.86651 -4.21484,-4.21485 0,-2.34834 1.8665,-4.21484 4.21484,-4.21484 z"
           id="circle194903" /><path
           style="color:#000000;fill:#ffffff;-inkscape-stroke:none"
           d="m 268.57227,374.6875 c -4.23988,0 -7.71484,3.47301 -7.71485,7.71289 0,4.23988 3.47496,7.71485 7.71485,7.71484 4.23988,10e-6 7.71289,-3.47496 7.71289,-7.71484 -1e-5,-4.23988 -3.47302,-7.71289 -7.71289,-7.71289 z m 0,3.5 c 2.34833,0 4.21288,1.86455 4.21289,4.21289 0,2.34834 -1.86455,4.21485 -4.21289,4.21484 -2.34835,10e-6 -4.21485,-1.8665 -4.21485,-4.21484 0,-2.34834 1.86651,-4.21289 4.21485,-4.21289 z"
           id="circle194904" /></g><path
         style="color:#000000;-inkscape-font-specification:'Neurock, Normal';fill:url(#linearGradient5);fill-opacity:1;stroke-width:1.82121;stroke-dasharray:none;filter:url(#filter291)"
         d="m 504.82075,393.97197 v -6.656 h 45.48265 l -5.29066,-11.60533 h -52.73598 v 18.26133 z m 33.53599,17.40799 -5.29066,-11.60533 h -40.78932 v 11.60533 z m -1.28,-0.768 h -44.03198 v -10.06933 h 39.50932 z m 7.936,24.83199 5.29066,-11.60533 h -45.48265 v -6.65599 h -12.54399 v 18.26132 z m 67.66929,0 -5.29067,-11.60533 h -21.75999 c -8.02133,0 -13.22666,-1.792 -15.87199,-3.75466 -2.56,-1.87733 -4.01067,-4.94933 -4.01067,-11.34933 v -6.31466 c 0,-6.4 1.45067,-9.472 4.01067,-11.43467 2.64533,-1.87733 6.65599,-3.66933 15.87199,-3.66933 h 7.85066 v -11.60533 h -7.85066 c -9.30133,0 -17.23733,1.28 -23.29599,5.71734 -6.05866,4.52266 -9.04533,11.94666 -9.13066,20.56532 v 7.168 c 0.0853,8.61866 3.072,16.12799 9.13066,20.56532 6.05866,4.43733 13.99466,5.71733 23.29599,5.71733 z m -0.256,-35.15732 v -24.57599 h -12.544 v 19.28533 z m -47.44532,1.70667 h -10.92266 c 0.0853,-8.448 2.90133,-15.61599 8.704,-19.88266 5.88799,-4.352 13.56799,-5.632 22.86932,-5.632 h 7.08266 v 10.06933 h -7.08266 c -9.30133,0 -13.56799,1.792 -16.29866,3.84 -2.816,2.048 -4.26666,5.376 -4.352,11.60533 z m 120.74655,33.45065 v -59.73331 h -12.62933 v 33.70666 l -5.29066,-9.64267 h -36.18132 v -24.06399 h -12.54399 v 59.73331 h 12.54399 V 401.7373 l 5.29067,9.64266 h 36.18131 v 24.06399 z m -54.86931,-35.66932 h -11.00799 v -23.29599 h 11.00799 z m 54.01598,34.90132 h -11.008 v -23.29599 h 11.008 z m 45.48269,0.768 V 413.2573 h 0.34133 c -0.34133,-0.42667 -0.34133,-0.17067 -0.34133,-0.768 h -0.17067 L 705.4393,375.71064 h -15.872 l 28.15999,37.29066 v 22.44265 z m 3.84,-27.47732 24.31999,-32.25599 h -15.87199 l -15.53066,22.18666 z m -4.94933,4.52267 h -10.92266 l -27.13599,-36.01066 h 13.82399 z m 60.67204,23.97865 v -12.62933 c -8.36267,0 -13.48267,-1.36533 -16.21333,-3.41333 -2.73067,-2.048 -4.096,-5.12 -4.096,-11.51999 v -6.656 c 0,-3.328 0.42667,-5.71733 1.10933,-7.50933 2.048,-5.376 7.59467,-7.424 19.2,-7.424 v -12.62933 h -0.42667 c -9.38666,0 -17.32266,1.36534 -23.46666,6.05867 -5.97333,4.608 -8.87466,12.28799 -8.95999,21.16266 v 7.33866 c 0.0853,8.87466 2.98666,16.55466 8.95999,21.16266 6.22933,4.77866 14.25066,6.05866 23.89333,6.05866 z m 4.26666,0 c 9.38666,0 17.32266,-1.36533 23.46666,-6.05866 5.97333,-4.608 8.87466,-12.288 8.95999,-21.16266 v -7.33866 c -0.0853,-8.87467 -2.98666,-16.55466 -8.95999,-21.16266 -6.144,-4.69333 -14.08,-6.05867 -23.46666,-6.05867 h -0.34133 v 12.62933 c 8.27733,0 13.39733,1.36534 16.12799,3.41333 2.73067,2.048 4.096,5.12 4.096,11.52 v 6.656 c 0,3.328 -0.42667,5.71733 -1.10933,7.50933 -2.048,5.37599 -7.59467,7.42399 -19.11466,7.42399 v 12.62933 z m 31.65865,-34.55998 h -11.00799 c -0.17067,-12.62933 -6.48533,-15.27466 -20.22399,-15.36 v -11.00799 c 9.04533,0 16.72532,1.36533 22.52799,5.80266 5.80266,4.43733 8.61866,11.86133 8.70399,20.56533 z m -36.77865,33.70665 c -9.04533,0 -16.72532,-1.36533 -22.52799,-5.80267 -5.80266,-4.43733 -8.53333,-11.86132 -8.61866,-20.56532 H 768.842 c 0.17067,12.62933 6.48533,15.27466 20.22399,15.35999 z m 111.18919,-0.17067 -51.54131,-59.73331 h -15.95733 l 51.54131,59.73331 z m -0.42667,-5.20533 v -54.52798 h -12.54399 v 39.93599 z m -0.768,-2.13333 -11.00799,-12.71466 v -38.91199 h 11.00799 z m -53.24797,7.33866 v -39.93598 l -12.62933,-14.59199 v 54.52797 z m -0.768,-0.768 h -11.008 v -51.62664 l 11.008,12.71466 z"
         id="path288"
         transform="matrix(0.54908702,0,0,0.54908702,107.6811,89.744098)" /><g
         id="g290"
         style="fill:url(#linearGradient8);fill-opacity:1;filter:url(#filter291)"
         transform="matrix(0.54908702,0,0,0.54908702,107.6811,89.744098)"><path
           style="color:#000000;-inkscape-font-specification:'Neurock, Normal';fill:url(#linearGradient6);fill-opacity:1;-inkscape-stroke:none"
           d="m 417.57228,351.9961 -8.26368,18.12891 h 101.70508 l -8.26367,-18.12891 z m 33.72461,1.19922 h 17.72851 l 8.53125,15.73047 h -34.79101 z m -0.9336,24.92774 v 19.22851 l -6.01367,4.28321 v 8.02539 l 32.50781,-23.15625 v -8.0254 l -6.89843,4.91407 v -5.26953 z m 19.59571,19.49804 -19.59571,11.31446 v 10.25 l -6.01367,4.2832 v 8.02539 l 32.50781,-23.15625 v -8.02539 l -6.89843,4.91406 z m 0,21.83594 -19.59571,11.3125 v 10.25195 l -6.01367,4.28321 v 8.02539 l 32.50781,-23.15625 v -8.02539 l -6.89843,4.91406 z m 0,21.83594 -19.59571,11.3125 v 3.35156 H 469.959 Z"
           id="path289" /><path
           style="color:#000000;-inkscape-font-specification:'Neurock, Normal';fill:url(#linearGradient7);fill-opacity:1;-inkscape-stroke:none"
           d="m 417.07031,351.21484 -0.20898,0.45703 -8.76758,19.23438 h 104.13477 l -8.97657,-19.69141 z m 1.00391,1.5625 h 32.56055 l -0.0254,0.0449 -8.95898,16.52148 h -31.12695 z m 51.61328,0 h 32.56055 l 7.55078,16.56641 h -31.12696 z m -17.92383,1.19922 h 16.79688 l 7.68359,14.16797 h -32.16406 z m 25.875,22.98633 -6.89844,4.91406 v -4.53515 h -21.1582 v 0.78125 18.82617 l -6.01367,4.2832 v 9.94336 l 34.07031,-24.26953 z m -26.49414,1.94141 h 18.0332 v 6.0039 l 6.89844,-4.91406 v 6.10742 l -30.94531,22.04297 v -6.10742 l 6.01367,-4.2832 z m 19.5957,17.36328 -1.17187,0.67773 -19.98633,11.53906 v 10.29883 l -6.01367,4.28321 v 9.94336 l 34.07031,-24.26954 v -9.94336 l -6.89844,4.91407 z m -1.5625,2.70508 v 7.76953 l 6.89844,-4.91407 v 6.10743 l -30.94531,22.04297 v -6.10743 l 6.01367,-4.2832 v -10.20117 z m 1.5625,19.13086 -1.17187,0.67773 -19.98633,11.53711 v 10.30078 l -6.01367,4.2832 v 9.94336 l 34.07031,-24.26953 v -9.94336 l -6.89844,4.91406 z m -1.5625,2.70507 v 7.76953 l 6.89844,-4.91406 v 6.10742 l -30.94531,22.04297 v -6.10742 l 6.01367,-4.2832 V 431.2207 Z m 1.5625,19.13086 -1.17187,0.67774 -19.98633,11.53711 v 4.58398 h 21.1582 z m -1.5625,2.70508 v 12.53125 h -18.0332 v -2.11914 z"
           id="path290" /></g><path
         style="color:#000000;-inkscape-font-specification:'Neurock, Normal';fill:#f9f9f9;fill-opacity:1;stroke:#ffffff;stroke-width:1;stroke-dasharray:none;stroke-opacity:1"
         d="m 384.87162,306.06899 v -3.65472 h 24.97393 l -2.90503,-6.37234 h -28.95664 v 10.02706 z m 18.41418,9.5585 -2.90503,-6.37233 h -22.39689 v 6.37233 z m -0.70283,-0.42169 h -24.17739 v -5.52894 h 21.69405 z m 4.35755,13.63492 2.90503,-6.37234 h -24.97393 v -3.65471 h -6.88774 v 10.02705 z m 37.15633,0 -2.90504,-6.37234 h -11.94813 c -4.4044,0 -7.26258,-0.98396 -8.7151,-2.06163 -1.40566,-1.03082 -2.20221,-2.71762 -2.20221,-6.23177 v -3.4673 c 0,-3.51416 0.79655,-5.20095 2.20221,-6.27863 1.45252,-1.03082 3.65472,-2.01478 8.7151,-2.01478 h 4.3107 v -6.37234 h -4.3107 c -5.10724,0 -9.46479,0.70284 -12.79152,3.13932 -3.32673,2.48333 -4.96668,6.55976 -5.01353,11.29215 v 3.93586 c 0.0468,4.73239 1.6868,8.85567 5.01353,11.29215 3.32673,2.43648 7.68428,3.13931 12.79152,3.13931 z m -0.14057,-19.30443 v -13.49436 h -6.88774 v 10.58933 z m -26.05161,0.93711 h -5.99749 c 0.0468,-4.63869 1.59309,-8.57454 4.77926,-10.91731 3.23302,-2.38963 7.45,-3.09246 12.55724,-3.09246 h 3.889 v 5.52894 h -3.889 c -5.10724,0 -7.45,0.98396 -8.94938,2.1085 -1.54623,1.12453 -2.34277,2.95189 -2.38963,6.37233 z m 66.30037,18.36732 v -32.79879 h -6.9346 v 18.50789 l -2.90504,-5.29466 h -19.86669 v -13.21323 h -6.88774 v 32.79879 h 6.88774 v -18.50789 l 2.90504,5.29466 h 19.86669 v 13.21323 z m -30.12803,-19.58556 h -6.04434 v -12.79153 h 6.04434 z m 29.65948,19.16386 h -6.04435 v -12.79153 h 6.04435 z m 24.97395,0.4217 v -12.1824 h 0.18742 c -0.18742,-0.23428 -0.18742,-0.0937 -0.18742,-0.4217 h -0.0937 l -13.58807,-20.19469 h -8.71511 l 15.46229,20.47582 v 12.32297 z m 2.10849,-15.08744 13.3538,-17.71135 h -8.71511 l -8.52768,12.18241 z m -2.71761,2.48334 h -5.99749 l -14.90002,-19.77299 h 7.59057 z m 33.31423,13.16636 v -6.9346 c -4.59183,0 -7.40316,-0.74968 -8.90253,-1.87421 -1.49937,-1.12453 -2.24906,-2.81133 -2.24906,-6.32548 v -3.65472 c 0,-1.82736 0.23428,-3.13931 0.60912,-4.12328 1.12453,-2.95189 4.17013,-4.07642 10.54247,-4.07642 v -6.9346 h -0.23428 c -5.15409,0 -9.51165,0.74969 -12.88524,3.32674 -3.27987,2.53019 -4.87296,6.74717 -4.91981,11.62014 v 4.02956 c 0.0468,4.87296 1.63994,9.08995 4.91981,11.62014 3.42045,2.6239 7.82486,3.32673 13.11952,3.32673 z m 2.34277,0 c 5.15409,0 9.51165,-0.74968 12.88524,-3.32673 3.27987,-2.53019 4.87296,-6.74718 4.91981,-11.62014 v -4.02956 c -0.0468,-4.87297 -1.63994,-9.08995 -4.91981,-11.62014 -3.37359,-2.57705 -7.73115,-3.32674 -12.88524,-3.32674 h -0.18742 v 6.9346 c 4.54497,0 7.3563,0.74969 8.85567,1.87421 1.49937,1.12454 2.24906,2.81133 2.24906,6.32549 v 3.65472 c 0,1.82736 -0.23428,3.13931 -0.60912,4.12328 -1.12453,2.95188 -4.17013,4.07641 -10.49561,4.07641 v 6.9346 z m 17.38335,-18.97643 h -6.04434 c -0.0937,-6.9346 -3.56101,-8.38712 -11.10473,-8.43398 v -6.04434 c 4.96667,0 9.18365,0.74968 12.36982,3.18616 3.18617,2.43648 4.7324,6.5129 4.77925,11.29216 z m -20.19468,18.50788 c -4.96667,0 -9.18365,-0.74968 -12.36982,-3.18617 -3.18617,-2.43648 -4.68554,-6.5129 -4.7324,-11.29215 h 5.99749 c 0.0937,6.9346 3.56101,8.38712 11.10473,8.43397 z m 61.05254,-0.0937 -28.30066,-32.79879 h -8.76196 l 28.30066,32.79879 z m -0.23427,-2.85818 v -29.94061 h -6.88775 v 21.92834 z m -0.4217,-1.17138 -6.04435,-6.98146 v -21.36607 h 6.04435 z m -29.23777,4.02956 V 306.9124 l -6.9346,-8.01227 v 29.9406 z m -0.4217,-0.4217 h -6.04435 V 300.0715 l 6.04435,6.98146 z"
         id="path1" /><g
         id="g3"
         style="fill:#f9f9f9;fill-opacity:1;stroke:#ffffff;stroke-opacity:1"
         transform="matrix(0.54908702,0,0,0.54908702,107.6811,89.744098)"><path
           style="color:#000000;-inkscape-font-specification:'Neurock, Normal';fill:#f9f9f9;fill-opacity:1;stroke:#ffffff;stroke-opacity:1;-inkscape-stroke:none"
           d="m 417.57228,351.9961 -8.26368,18.12891 h 101.70508 l -8.26367,-18.12891 z m 33.72461,1.19922 h 17.72851 l 8.53125,15.73047 h -34.79101 z m -0.9336,24.92774 v 19.22851 l -6.01367,4.28321 v 8.02539 l 32.50781,-23.15625 v -8.0254 l -6.89843,4.91407 v -5.26953 z m 19.59571,19.49804 -19.59571,11.31446 v 10.25 l -6.01367,4.2832 v 8.02539 l 32.50781,-23.15625 v -8.02539 l -6.89843,4.91406 z m 0,21.83594 -19.59571,11.3125 v 10.25195 l -6.01367,4.28321 v 8.02539 l 32.50781,-23.15625 v -8.02539 l -6.89843,4.91406 z m 0,21.83594 -19.59571,11.3125 v 3.35156 H 469.959 Z"
           id="path2" /><path
           style="color:#000000;-inkscape-font-specification:'Neurock, Normal';fill:#f9f9f9;fill-opacity:1;stroke:#ffffff;stroke-opacity:1;-inkscape-stroke:none"
           d="m 417.07031,351.21484 -0.20898,0.45703 -8.76758,19.23438 h 104.13477 l -8.97657,-19.69141 z m 1.00391,1.5625 h 32.56055 l -0.0254,0.0449 -8.95898,16.52148 h -31.12695 z m 51.61328,0 h 32.56055 l 7.55078,16.56641 h -31.12696 z m -17.92383,1.19922 h 16.79688 l 7.68359,14.16797 h -32.16406 z m 25.875,22.98633 -6.89844,4.91406 v -4.53515 h -21.1582 v 0.78125 18.82617 l -6.01367,4.2832 v 9.94336 l 34.07031,-24.26953 z m -26.49414,1.94141 h 18.0332 v 6.0039 l 6.89844,-4.91406 v 6.10742 l -30.94531,22.04297 v -6.10742 l 6.01367,-4.2832 z m 19.5957,17.36328 -1.17187,0.67773 -19.98633,11.53906 v 10.29883 l -6.01367,4.28321 v 9.94336 l 34.07031,-24.26954 v -9.94336 l -6.89844,4.91407 z m -1.5625,2.70508 v 7.76953 l 6.89844,-4.91407 v 6.10743 l -30.94531,22.04297 v -6.10743 l 6.01367,-4.2832 v -10.20117 z m 1.5625,19.13086 -1.17187,0.67773 -19.98633,11.53711 v 10.30078 l -6.01367,4.2832 v 9.94336 l 34.07031,-24.26953 v -9.94336 l -6.89844,4.91406 z m -1.5625,2.70507 v 7.76953 l 6.89844,-4.91406 v 6.10742 l -30.94531,22.04297 v -6.10742 l 6.01367,-4.2832 V 431.2207 Z m 1.5625,19.13086 -1.17187,0.67774 -19.98633,11.53711 v 4.58398 h 21.1582 z m -1.5625,2.70508 v 12.53125 h -18.0332 v -2.11914 z"
           id="path3" /></g><path
         d="m 649.39578,461.71533 q -0.0743,0.37144 -0.5943,0.89145 -0.52002,0.52002 -1.2629,1.04003 -0.74287,0.44573 -1.56004,0.89146 -0.81717,0.37143 -1.41147,0.44572 h -7.94879 q -2.37721,0 -4.68013,0.89146 -2.30293,0.81716 -4.23441,2.22863 -1.85719,1.41147 -3.19437,3.19438 -1.2629,1.7829 -1.70862,3.6401 l -5.34873,24.9607 h 38.85253 l 2.15434,-9.80599 h -23.7721 l 2.89723,-13.66896 q 0.0743,-0.29715 0.5943,-0.81716 0.5943,-0.5943 1.33718,-1.04003 0.74288,-0.52002 1.48576,-0.89145 0.81716,-0.44573 1.41147,-0.52002 h 7.94879 q 2.30292,0 4.60584,-0.81717 2.30293,-0.89145 4.16012,-2.30292 1.93148,-1.41147 3.26867,-3.19437 1.33718,-1.78291 1.7829,-3.64011 l 1.18861,-5.72016 q 0.14857,-0.29715 0.14857,-0.66859 0,-0.37144 0,-0.74287 0,-1.63434 -0.74287,-3.12009 -0.74288,-1.48576 -2.08006,-2.67436 -1.33718,-1.18861 -3.12009,-1.8572 -1.78291,-0.74288 -3.86297,-0.74288 h -27.18933 l -2.00577,9.58313 h 19.38911 q 0.52002,0 1.11432,0.37144 0.66859,0.29715 1.26289,0.81717 0.59431,0.44572 0.96574,1.04002 0.44573,0.52002 0.44573,0.89146 v 0.14857 z m -1.26289,-0.44573 h -20.05771 l -2.60007,-2.74865 h -0.52002 l 2.4515,-12.10891 h 28.30365 q 3.26867,0 5.79445,1.41147 2.52579,1.41147 3.86297,3.56581 l 1.48575,1.41147 q 2.67436,2.67436 2.67436,6.0916 0,0.52002 0,0.96574 0,0.44573 -0.14857,0.81717 l -1.18861,5.64587 q -0.44572,2.00577 -1.93148,4.01154 -1.41147,1.93149 -3.41724,3.49153 -2.00577,1.48576 -4.53155,2.4515 -2.4515,0.89145 -4.97729,0.89145 h -7.94879 q -1.04003,0.22287 -2.37721,1.04003 -1.26289,0.74288 -1.41147,1.33718 l -2.08006,9.28598 h 20.50344 l -0.0743,0.44572 2.74865,2.74865 -2.52579,11.88605 h -41.00687 l -2.74865,-2.74865 h -0.52001 l 5.64587,-26.44646 q 0.44573,-2.08005 1.8572,-4.01154 1.48575,-2.00577 3.49153,-3.56581 2.08005,-1.56005 4.60584,-2.4515 2.52578,-0.96574 5.12586,-0.96574 h 7.8745 q 0.44573,-0.0743 1.04003,-0.29715 0.66859,-0.29715 1.18861,-0.5943 0.5943,-0.37144 0.96574,-0.74288 0.44573,-0.37144 0.44573,-0.66859 z m 24.73789,-4.01154 -6.90876,32.3152 q -0.22287,0.66859 -0.22287,2.00577 0,2.37721 1.11432,4.38298 1.1886,1.93148 3.12009,3.26866 l 1.56004,1.48576 q 1.48576,1.48575 3.49153,2.30292 2.08006,0.89145 4.68013,0.89145 h 19.53769 q 2.52579,0 4.97728,-0.96574 2.52579,-0.89145 4.53156,-2.4515 2.00577,-1.48575 3.41724,-3.41724 1.48576,-2.00577 1.93148,-4.01154 l 6.90877,-32.38948 q 0.14857,-0.37144 0.14857,-0.81717 0,-0.44572 0,-0.96574 0,-3.41724 -2.67436,-6.0916 l -1.48575,-1.41147 q -1.33718,-2.15434 -3.86297,-3.56581 -2.52578,-1.41147 -5.79445,-1.41147 h -19.38911 q -2.60008,0 -5.12586,0.96574 -2.4515,0.89146 -4.53156,2.4515 -2.08006,1.56004 -3.56581,3.49153 -1.41147,1.93148 -1.8572,3.93725 z m 1.26289,0.22286 q 0.44573,-1.7829 1.70862,-3.56581 1.33718,-1.78291 3.19438,-3.12009 1.93148,-1.41147 4.2344,-2.22863 2.30293,-0.89146 4.68014,-0.89146 h 19.38911 q 2.08006,0 3.86297,0.74288 1.78291,0.66859 3.12009,1.8572 1.33718,1.1886 2.08005,2.67436 0.74288,1.48575 0.74288,3.12009 0,0.37143 0,0.74287 0,0.37144 -0.14857,0.66859 l -6.90877,32.46377 q -0.44573,1.8572 -1.78291,3.64011 -1.26289,1.7829 -3.19437,3.19437 -1.8572,1.41147 -4.16012,2.30292 -2.30292,0.81717 -4.68013,0.81717 h -19.53769 q -2.00577,0 -3.78868,-0.66859 -1.78291,-0.74288 -3.12009,-1.8572 -1.33718,-1.1886 -2.08006,-2.67436 -0.74288,-1.48575 -0.74288,-3.12008 0,-0.81717 0.22287,-1.63434 z m 19.46341,-0.14857 q -0.5943,0 -1.41147,0.37144 -0.81717,0.37144 -1.63433,0.89145 -0.74288,0.52002 -1.33718,1.11432 -0.5943,0.52001 -0.66859,0.89145 l -3.78868,17.90336 0.29715,0.14858 14.26326,-20.50344 q -1.04003,-0.81716 -1.78291,-0.81716 z m -2.97151,32.76092 q 0.52001,0 1.33718,-0.37144 0.89145,-0.37144 1.63433,-0.89145 0.81716,-0.52002 1.41147,-1.04003 0.5943,-0.5943 0.66859,-0.96574 l 3.78868,-17.75479 -0.29716,-0.14857 -14.26325,20.35485 q 1.04002,0.81717 1.7829,0.81717 z m 1.93148,-26.37217 q 0.0743,-0.29715 0.81717,-0.81717 0.74287,-0.5943 1.63433,-1.04003 l -3.0458,4.38298 z m -0.66859,24.81213 3.0458,-4.08583 -0.52002,2.15434 q -0.14857,0.37144 -0.96574,0.96574 -0.74288,0.59431 -1.56004,0.96575 z m 56.75585,-26.8179 q -0.0743,0.37144 -0.5943,0.89145 -0.52001,0.52002 -1.26289,1.04003 -0.74288,0.44573 -1.56004,0.89146 -0.81717,0.37143 -1.41147,0.44572 h -7.9488 q -2.37721,0 -4.68013,0.89146 -2.30292,0.81716 -4.2344,2.22863 -1.8572,1.41147 -3.19438,3.19438 -1.26289,1.7829 -1.70862,3.6401 l -5.34872,24.9607 h 38.85252 l 2.15435,-9.80599 h -23.7721 l 2.89722,-13.66896 q 0.0743,-0.29715 0.59431,-0.81716 0.5943,-0.5943 1.33718,-1.04003 0.74287,-0.52002 1.48575,-0.89145 0.81717,-0.44573 1.41147,-0.52002 h 7.9488 q 2.30292,0 4.60584,-0.81717 2.30292,-0.89145 4.16012,-2.30292 1.93148,-1.41147 3.26866,-3.19437 1.33718,-1.78291 1.78291,-3.64011 l 1.1886,-5.72016 q 0.14858,-0.29715 0.14858,-0.66859 0,-0.37144 0,-0.74287 0,-1.63434 -0.74288,-3.12009 -0.74288,-1.48576 -2.08006,-2.67436 -1.33718,-1.18861 -3.12009,-1.8572 -1.7829,-0.74288 -3.86296,-0.74288 h -27.18934 l -2.00577,9.58313 h 19.38912 q 0.52001,0 1.11432,0.37144 0.66859,0.29715 1.26289,0.81717 0.5943,0.44572 0.96574,1.04002 0.44573,0.52002 0.44573,0.89146 v 0.14857 z m -1.26289,-0.44573 h -20.0577 l -2.60008,-2.74865 h -0.52001 l 2.45149,-12.10891 h 28.30366 q 3.26866,0 5.79445,1.41147 2.52578,1.41147 3.86296,3.56581 l 1.48576,1.41147 q 2.67436,2.67436 2.67436,6.0916 0,0.52002 0,0.96574 0,0.44573 -0.14858,0.81717 l -1.1886,5.64587 q -0.44573,2.00577 -1.93148,4.01154 -1.41147,1.93149 -3.41724,3.49153 -2.00577,1.48576 -4.53156,2.4515 -2.4515,0.89145 -4.97728,0.89145 h -7.9488 q -1.04003,0.22287 -2.37721,1.04003 -1.26289,0.74288 -1.41146,1.33718 l -2.08006,9.28598 h 20.50343 l -0.0743,0.44572 2.74865,2.74865 -2.52578,11.88605 h -41.00687 l -2.74865,-2.74865 h -0.52001 l 5.64587,-26.44646 q 0.44573,-2.08005 1.85719,-4.01154 1.48576,-2.00577 3.49153,-3.56581 2.08006,-1.56005 4.60584,-2.4515 2.52579,-0.96574 5.12586,-0.96574 h 7.87451 q 0.44573,-0.0743 1.04003,-0.29715 0.66859,-0.29715 1.1886,-0.5943 0.59431,-0.37144 0.96575,-0.74288 0.44572,-0.37144 0.44572,-0.66859 z m 39.59546,25.55501 q -0.0743,0.37144 -0.66859,0.96574 -0.5943,0.52001 -1.41146,1.04003 -0.74288,0.52001 -1.63434,0.89145 -0.81716,0.37144 -1.33718,0.37144 h -15.45186 l -2.15435,9.80599 h 23.25209 q 2.37721,0 4.68013,-0.81717 2.30292,-0.89145 4.16012,-2.30292 1.93148,-1.41147 3.19437,-3.19437 1.33718,-1.78291 1.78291,-3.64011 l 6.90876,-32.46377 q 0.14858,-0.29715 0.14858,-0.66859 0,-0.37144 0,-0.74287 0,-1.63434 -0.74288,-3.12009 -0.74288,-1.48576 -2.08006,-2.67436 -1.33718,-1.18861 -3.12008,-1.8572 -1.78291,-0.74288 -3.86297,-0.74288 h -23.25208 l -2.15435,9.65742 h 15.60044 q 0.52001,0 1.11432,0.37144 0.66859,0.29715 1.1886,0.81716 0.5943,0.44573 0.96574,1.04003 0.44573,0.52002 0.44573,0.89146 v 0.14857 l -0.89145,4.38298 h -19.83485 l -1.7829,8.24595 h 19.83484 z m 0.74288,-9.58313 h -15.97187 l -2.74865,-2.74865 h -0.52002 l 2.22864,-10.77173 h 19.83484 l 0.52001,-2.37721 h -16.12045 l -2.60007,-2.74865 h -0.52002 l 2.4515,-12.1832 h 24.3664 q 3.26866,0 5.79445,1.41147 2.52578,1.41147 3.86296,3.56581 l 1.48576,1.41147 q 2.67436,2.67436 2.67436,6.0916 0,0.52002 0,0.96574 0,0.44573 -0.14857,0.81717 l -6.90877,32.38948 q -0.44573,2.00577 -1.85719,4.01154 -1.41147,1.93149 -3.41724,3.41724 -2.00577,1.56005 -4.53156,2.4515 -2.4515,0.96574 -5.05157,0.96574 h -24.51498 l -2.74864,-2.74865 h -0.52002 l 2.60007,-12.33177 h 16.56618 q 0.44573,0 1.04003,-0.22287 0.66859,-0.29715 1.2629,-0.5943 0.5943,-0.37144 0.96574,-0.74288 0.44572,-0.37144 0.52001,-0.66859 z"
         id="text96"
         style="font-size:74.2878px;font-family:'Lightsider 3D';-inkscape-font-specification:'Lightsider 3D, Normal';fill:#f36700;stroke-width:2.32149;filter:url(#filter8)"
         transform="matrix(0.54908702,0,0,0.54908702,107.6811,89.744098)"
         aria-label="2023" /><path
         style="font-size:40.7905px;font-family:'Lightsider 3D';-inkscape-font-specification:'Lightsider 3D, Normal';fill:#ffffff;stroke:#ffffff;stroke-width:0.5;stroke-dasharray:none;stroke-opacity:1"
         d="m 464.25592,343.26597 q -0.0408,0.20395 -0.32632,0.48948 -0.28554,0.28554 -0.69344,0.57107 -0.40791,0.24474 -0.8566,0.48949 -0.4487,0.20395 -0.77502,0.24474 h -4.36459 q -1.30529,0 -2.5698,0.48949 -1.2645,0.44869 -2.32506,1.22371 -1.01976,0.77502 -1.75399,1.75399 -0.69344,0.97897 -0.93818,1.99874 l -2.93692,13.7056 h 21.33344 l 1.18292,-5.38434 H 456.1794 l 1.59083,-7.50545 q 0.0408,-0.16317 0.32632,-0.4487 0.32633,-0.32632 0.73423,-0.57107 0.40791,-0.28553 0.81581,-0.48948 0.4487,-0.24474 0.77502,-0.28554 h 4.36459 q 1.2645,0 2.52901,-0.44869 1.2645,-0.48949 2.28427,-1.26451 1.06055,-0.77502 1.79478,-1.75399 0.73423,-0.97897 0.97897,-1.99873 l 0.65265,-3.14087 q 0.0816,-0.16316 0.0816,-0.36712 0,-0.20395 0,-0.4079 0,-0.89739 -0.40791,-1.7132 -0.4079,-0.81581 -1.14213,-1.46846 -0.73423,-0.65265 -1.7132,-1.01976 -0.97897,-0.40791 -2.12111,-0.40791 h -14.92932 l -1.10134,5.26198 h 10.64632 q 0.28553,0 0.61185,0.20395 0.36712,0.16316 0.69344,0.4487 0.32633,0.24474 0.53028,0.57106 0.24474,0.28554 0.24474,0.48949 v 0.0816 z m -0.69344,-0.24475 h -11.01343 l -1.42767,-1.50924 h -0.28554 l 1.34609,-6.64886 h 15.54118 q 1.79478,0 3.18166,0.77502 1.38688,0.77502 2.12111,1.95795 l 0.81581,0.77502 q 1.46846,1.46846 1.46846,3.34482 0,0.28553 0,0.53027 0,0.24475 -0.0816,0.4487 l -0.65264,3.10008 q -0.24475,1.10134 -1.06056,2.20269 -0.77502,1.06055 -1.87636,1.91715 -1.10134,0.81581 -2.48822,1.34609 -1.34609,0.48948 -2.73296,0.48948 h -4.36459 q -0.57106,0.12237 -1.30529,0.57107 -0.69344,0.4079 -0.77502,0.73423 l -1.14214,5.09881 h 11.25818 l -0.0408,0.24474 1.50925,1.50925 -1.38688,6.52648 h -22.51635 l -1.50925,-1.50925 h -0.28554 l 3.10008,-14.52141 q 0.24474,-1.14214 1.01976,-2.20269 0.81581,-1.10135 1.91716,-1.95795 1.14213,-0.8566 2.52901,-1.34608 1.38688,-0.53028 2.81454,-0.53028 h 4.3238 q 0.24474,-0.0408 0.57106,-0.16316 0.36712,-0.16316 0.65265,-0.32633 0.32633,-0.20395 0.53028,-0.4079 0.24474,-0.20395 0.24474,-0.36711 z m 13.58327,-2.20268 -3.79352,17.74387 q -0.12237,0.36711 -0.12237,1.10134 0,1.30529 0.61186,2.40664 0.65265,1.06055 1.7132,1.79478 l 0.8566,0.81581 q 0.81581,0.81581 1.91715,1.26451 1.14214,0.48948 2.5698,0.48948 h 10.72791 q 1.38687,0 2.73296,-0.53027 1.38688,-0.48949 2.48822,-1.34609 1.10134,-0.81581 1.87636,-1.87636 0.81581,-1.10135 1.06056,-2.20269 l 3.79351,-17.78466 q 0.0816,-0.20395 0.0816,-0.4487 0,-0.24474 0,-0.53027 0,-1.87636 -1.46845,-3.34482 l -0.81581,-0.77502 q -0.73423,-1.18293 -2.12111,-1.95795 -1.38688,-0.77502 -3.18166,-0.77502 h -10.64632 q -1.42767,0 -2.81454,0.53028 -1.34609,0.48949 -2.48822,1.34609 -1.14214,0.8566 -1.95795,1.91715 -0.77502,1.06055 -1.01976,2.1619 z m 0.69344,0.12237 q 0.24474,-0.97897 0.93818,-1.95795 0.73423,-0.97897 1.75399,-1.7132 1.06055,-0.77502 2.32506,-1.22371 1.2645,-0.48949 2.5698,-0.48949 h 10.64632 q 1.14213,0 2.12111,0.40791 0.97897,0.36711 1.7132,1.01976 0.73423,0.65265 1.14213,1.46846 0.40791,0.81581 0.40791,1.7132 0,0.20395 0,0.4079 0,0.20396 -0.0816,0.36712 l -3.79352,17.82545 q -0.24474,1.01976 -0.97897,1.99873 -0.69344,0.97897 -1.75399,1.75399 -1.01977,0.77502 -2.28427,1.26451 -1.26451,0.44869 -2.5698,0.44869 h -10.72791 q -1.10134,0 -2.08031,-0.36711 -0.97897,-0.4079 -1.7132,-1.01976 -0.73423,-0.65265 -1.14214,-1.46846 -0.4079,-0.81581 -0.4079,-1.7132 0,-0.4487 0.12237,-0.89739 z m 10.68711,-0.0816 q -0.32633,0 -0.77502,0.20395 -0.4487,0.20395 -0.89739,0.48949 -0.40791,0.28553 -0.73423,0.61185 -0.32633,0.28554 -0.36712,0.48949 l -2.08031,9.83051 0.16316,0.0816 7.83178,-11.25818 q -0.57107,-0.44869 -0.97898,-0.44869 z m -1.63162,17.98861 q 0.28553,0 0.73423,-0.20395 0.48948,-0.20396 0.89739,-0.48949 0.44869,-0.28553 0.77502,-0.57107 0.32632,-0.32632 0.36711,-0.53027 l 2.08032,-9.74893 -0.16316,-0.0816 -7.83178,11.17659 q 0.57107,0.4487 0.97897,0.4487 z m 1.06055,-14.48063 q 0.0408,-0.16316 0.4487,-0.44869 0.4079,-0.32633 0.89739,-0.57107 l -1.67241,2.40664 z m -0.36711,13.62403 1.67241,-2.24348 -0.28554,1.18293 q -0.0816,0.20395 -0.53027,0.53027 -0.40791,0.32633 -0.8566,0.53028 z m 31.16393,-14.72537 q -0.0408,0.20395 -0.32633,0.48948 -0.28553,0.28554 -0.69343,0.57107 -0.40791,0.24474 -0.85661,0.48949 -0.44869,0.20395 -0.77501,0.24474 h -4.36459 q -1.30529,0 -2.5698,0.48949 -1.26451,0.44869 -2.32506,1.22371 -1.01976,0.77502 -1.75399,1.75399 -0.69344,0.97897 -0.93818,1.99874 l -2.93692,13.7056 h 21.33343 l 1.18293,-5.38434 h -13.05296 l 1.59083,-7.50545 q 0.0408,-0.16317 0.32632,-0.4487 0.32633,-0.32632 0.73423,-0.57107 0.40791,-0.28553 0.81581,-0.48948 0.4487,-0.24474 0.77502,-0.28554 h 4.36458 q 1.26451,0 2.52902,-0.44869 1.2645,-0.48949 2.28426,-1.26451 1.06056,-0.77502 1.79479,-1.75399 0.73422,-0.97897 0.97897,-1.99873 l 0.65265,-3.14087 q 0.0816,-0.16316 0.0816,-0.36712 0,-0.20395 0,-0.4079 0,-0.89739 -0.40791,-1.7132 -0.4079,-0.81581 -1.14213,-1.46846 -0.73423,-0.65265 -1.7132,-1.01976 -0.97898,-0.40791 -2.12111,-0.40791 h -14.92932 l -1.10135,5.26198 h 10.64632 q 0.28554,0 0.61186,0.20395 0.36712,0.16316 0.69344,0.4487 0.32632,0.24474 0.53028,0.57106 0.24474,0.28554 0.24474,0.48949 v 0.0816 z m -0.69344,-0.24475 h -11.01344 l -1.42766,-1.50924 h -0.28554 l 1.34609,-6.64886 h 15.54118 q 1.79478,0 3.18166,0.77502 1.38688,0.77502 2.12111,1.95795 l 0.81581,0.77502 q 1.46845,1.46846 1.46845,3.34482 0,0.28553 0,0.53027 0,0.24475 -0.0816,0.4487 l -0.65265,3.10008 q -0.24474,1.10134 -1.06055,2.20269 -0.77502,1.06055 -1.87636,1.91715 -1.10135,0.81581 -2.48822,1.34609 -1.34609,0.48948 -2.73297,0.48948 h -4.36458 q -0.57107,0.12237 -1.3053,0.57107 -0.69343,0.4079 -0.77502,0.73423 l -1.14213,5.09881 h 11.25818 l -0.0408,0.24474 1.50925,1.50925 -1.38688,6.52648 h -22.51636 l -1.50924,-1.50925 h -0.28554 l 3.10008,-14.52141 q 0.24474,-1.14214 1.01976,-2.20269 0.81581,-1.10135 1.91716,-1.95795 1.14213,-0.8566 2.52901,-1.34608 1.38687,-0.53028 2.81454,-0.53028 h 4.32379 q 0.24475,-0.0408 0.57107,-0.16316 0.36712,-0.16316 0.65265,-0.32633 0.32632,-0.20395 0.53028,-0.4079 0.24474,-0.20395 0.24474,-0.36711 z m 21.74136,14.03194 q -0.0408,0.20395 -0.36711,0.53027 -0.32632,0.28554 -0.77502,0.57107 -0.4079,0.28553 -0.89739,0.48949 -0.4487,0.20395 -0.73423,0.20395 h -8.48442 l -1.18293,5.38434 h 12.76743 q 1.30529,0 2.5698,-0.44869 1.26451,-0.48949 2.28427,-1.26451 1.06055,-0.77502 1.75399,-1.75399 0.73423,-0.97897 0.97897,-1.99873 l 3.79352,-17.82545 q 0.0816,-0.16316 0.0816,-0.36712 0,-0.20395 0,-0.4079 0,-0.89739 -0.40791,-1.7132 -0.4079,-0.81581 -1.14213,-1.46846 -0.73423,-0.65265 -1.7132,-1.01976 -0.97897,-0.40791 -2.12111,-0.40791 h -12.76742 l -1.18293,5.30277 h 8.56601 q 0.28553,0 0.61185,0.20395 0.36712,0.16316 0.65265,0.4487 0.32633,0.24474 0.53028,0.57106 0.24474,0.28554 0.24474,0.48949 v 0.0816 l -0.48948,2.40664 h -10.89107 l -0.97897,4.52775 h 10.89106 z m 0.40791,-5.26198 h -8.76996 l -1.50925,-1.50925 h -0.28553 l 1.22372,-5.91462 h 10.89106 l 0.28553,-1.3053 h -8.85154 l -1.42766,-1.50924 h -0.28554 l 1.34609,-6.68965 h 13.37928 q 1.79479,0 3.18166,0.77502 1.38688,0.77502 2.12111,1.95795 l 0.81581,0.77502 q 1.46846,1.46846 1.46846,3.34482 0,0.28553 0,0.53027 0,0.24475 -0.0816,0.4487 l -3.79352,17.78466 q -0.24474,1.10134 -1.01976,2.20269 -0.77502,1.06055 -1.87637,1.87636 -1.10134,0.8566 -2.48822,1.34609 -1.34608,0.53027 -2.77375,0.53027 h -13.46087 l -1.50924,-1.50925 h -0.28554 l 1.42767,-6.77122 h 9.09628 q 0.24474,0 0.57107,-0.12237 0.36711,-0.16316 0.69344,-0.32633 0.32632,-0.20395 0.53027,-0.4079 0.24475,-0.20395 0.28554,-0.36711 z"
         id="text95"
         aria-label="2023" /></g></g><script
     id="mesh_polyfill"
     type="text/javascript">&#10;!function(){const t=&quot;http://www.w3.org/2000/svg&quot;,e=&quot;http://www.w3.org/1999/xlink&quot;,s=&quot;http://www.w3.org/1999/xhtml&quot;,r=2;if(document.createElementNS(t,&quot;meshgradient&quot;).x)return;const n=(t,e,s,r)=&gt;{let n=new x(.5*(e.x+s.x),.5*(e.y+s.y)),o=new x(.5*(t.x+e.x),.5*(t.y+e.y)),i=new x(.5*(s.x+r.x),.5*(s.y+r.y)),a=new x(.5*(n.x+o.x),.5*(n.y+o.y)),h=new x(.5*(n.x+i.x),.5*(n.y+i.y)),l=new x(.5*(a.x+h.x),.5*(a.y+h.y));return[[t,o,a,l],[l,h,i,r]]},o=t=&gt;{let e=t[0].distSquared(t[1]),s=t[2].distSquared(t[3]),r=.25*t[0].distSquared(t[2]),n=.25*t[1].distSquared(t[3]),o=e&gt;s?e:s,i=r&gt;n?r:n;return 18*(o&gt;i?o:i)},i=(t,e)=&gt;Math.sqrt(t.distSquared(e)),a=(t,e)=&gt;t.scale(2/3).add(e.scale(1/3)),h=t=&gt;{let e,s,r,n,o,i,a,h=new g;return t.match(/(\w+\(\s*[^)]+\))+/g).forEach(t=&gt;{let l=t.match(/[\w.-]+/g),d=l.shift();switch(d){case&quot;translate&quot;:2===l.length?e=new g(1,0,0,1,l[0],l[1]):(console.error(&quot;mesh.js: translate does not have 2 arguments!&quot;),e=new g(1,0,0,1,0,0)),h=h.append(e);break;case&quot;scale&quot;:1===l.length?s=new g(l[0],0,0,l[0],0,0):2===l.length?s=new g(l[0],0,0,l[1],0,0):(console.error(&quot;mesh.js: scale does not have 1 or 2 arguments!&quot;),s=new g(1,0,0,1,0,0)),h=h.append(s);break;case&quot;rotate&quot;:if(3===l.length&amp;&amp;(e=new g(1,0,0,1,l[1],l[2]),h=h.append(e)),l[0]){r=l[0]*Math.PI/180;let t=Math.cos(r),e=Math.sin(r);Math.abs(t)&lt;1e-16&amp;&amp;(t=0),Math.abs(e)&lt;1e-16&amp;&amp;(e=0),a=new g(t,e,-e,t,0,0),h=h.append(a)}else console.error(&quot;math.js: No argument to rotate transform!&quot;);3===l.length&amp;&amp;(e=new g(1,0,0,1,-l[1],-l[2]),h=h.append(e));break;case&quot;skewX&quot;:l[0]?(r=l[0]*Math.PI/180,n=Math.tan(r),o=new g(1,0,n,1,0,0),h=h.append(o)):console.error(&quot;math.js: No argument to skewX transform!&quot;);break;case&quot;skewY&quot;:l[0]?(r=l[0]*Math.PI/180,n=Math.tan(r),i=new g(1,n,0,1,0,0),h=h.append(i)):console.error(&quot;math.js: No argument to skewY transform!&quot;);break;case&quot;matrix&quot;:6===l.length?h=h.append(new g(...l)):console.error(&quot;math.js: Incorrect number of arguments for matrix!&quot;);break;default:console.error(&quot;mesh.js: Unhandled transform type: &quot;+d)}}),h},l=t=&gt;{let e=[],s=t.split(/[ ,]+/);for(let t=0,r=s.length-1;t&lt;r;t+=2)e.push(new x(parseFloat(s[t]),parseFloat(s[t+1])));return e},d=(t,e)=&gt;{for(let s in e)t.setAttribute(s,e[s])},c=(t,e,s,r,n)=&gt;{let o,i,a=[0,0,0,0];for(let h=0;h&lt;3;++h)e[h]&lt;t[h]&amp;&amp;e[h]&lt;s[h]||t[h]&lt;e[h]&amp;&amp;s[h]&lt;e[h]?a[h]=0:(a[h]=.5*((e[h]-t[h])/r+(s[h]-e[h])/n),o=Math.abs(3*(e[h]-t[h])/r),i=Math.abs(3*(s[h]-e[h])/n),a[h]&gt;o?a[h]=o:a[h]&gt;i&amp;&amp;(a[h]=i));return a},u=[[1,0,0,0,0,0,0,0,0,0,0,0,0,0,0,0],[0,0,0,0,1,0,0,0,0,0,0,0,0,0,0,0],[-3,3,0,0,-2,-1,0,0,0,0,0,0,0,0,0,0],[2,-2,0,0,1,1,0,0,0,0,0,0,0,0,0,0],[0,0,0,0,0,0,0,0,1,0,0,0,0,0,0,0],[0,0,0,0,0,0,0,0,0,0,0,0,1,0,0,0],[0,0,0,0,0,0,0,0,-3,3,0,0,-2,-1,0,0],[0,0,0,0,0,0,0,0,2,-2,0,0,1,1,0,0],[-3,0,3,0,0,0,0,0,-2,0,-1,0,0,0,0,0],[0,0,0,0,-3,0,3,0,0,0,0,0,-2,0,-1,0],[9,-9,-9,9,6,3,-6,-3,6,-6,3,-3,4,2,2,1],[-6,6,6,-6,-3,-3,3,3,-4,4,-2,2,-2,-2,-1,-1],[2,0,-2,0,0,0,0,0,1,0,1,0,0,0,0,0],[0,0,0,0,2,0,-2,0,0,0,0,0,1,0,1,0],[-6,6,6,-6,-4,-2,4,2,-3,3,-3,3,-2,-1,-2,-1],[4,-4,-4,4,2,2,-2,-2,2,-2,2,-2,1,1,1,1]],f=t=&gt;{let e=[];for(let s=0;s&lt;16;++s){e[s]=0;for(let r=0;r&lt;16;++r)e[s]+=u[s][r]*t[r]}return e},p=(t,e,s)=&gt;{const r=e*e,n=s*s,o=e*e*e,i=s*s*s;return t[0]+t[1]*e+t[2]*r+t[3]*o+t[4]*s+t[5]*s*e+t[6]*s*r+t[7]*s*o+t[8]*n+t[9]*n*e+t[10]*n*r+t[11]*n*o+t[12]*i+t[13]*i*e+t[14]*i*r+t[15]*i*o},y=t=&gt;{let e=[],s=[],r=[];for(let s=0;s&lt;4;++s)e[s]=[],e[s][0]=n(t[0][s],t[1][s],t[2][s],t[3][s]),e[s][1]=[],e[s][1].push(...n(...e[s][0][0])),e[s][1].push(...n(...e[s][0][1])),e[s][2]=[],e[s][2].push(...n(...e[s][1][0])),e[s][2].push(...n(...e[s][1][1])),e[s][2].push(...n(...e[s][1][2])),e[s][2].push(...n(...e[s][1][3]));for(let t=0;t&lt;8;++t){s[t]=[];for(let r=0;r&lt;4;++r)s[t][r]=[],s[t][r][0]=n(e[0][2][t][r],e[1][2][t][r],e[2][2][t][r],e[3][2][t][r]),s[t][r][1]=[],s[t][r][1].push(...n(...s[t][r][0][0])),s[t][r][1].push(...n(...s[t][r][0][1])),s[t][r][2]=[],s[t][r][2].push(...n(...s[t][r][1][0])),s[t][r][2].push(...n(...s[t][r][1][1])),s[t][r][2].push(...n(...s[t][r][1][2])),s[t][r][2].push(...n(...s[t][r][1][3]))}for(let t=0;t&lt;8;++t){r[t]=[];for(let e=0;e&lt;8;++e)r[t][e]=[],r[t][e][0]=s[t][0][2][e],r[t][e][1]=s[t][1][2][e],r[t][e][2]=s[t][2][2][e],r[t][e][3]=s[t][3][2][e]}return r};class x{constructor(t,e){this.x=t||0,this.y=e||0}toString(){return`(x=${this.x}, y=${this.y})`}clone(){return new x(this.x,this.y)}add(t){return new x(this.x+t.x,this.y+t.y)}scale(t){return void 0===t.x?new x(this.x*t,this.y*t):new x(this.x*t.x,this.y*t.y)}distSquared(t){let e=this.x-t.x,s=this.y-t.y;return e*e+s*s}transform(t){let e=this.x*t.a+this.y*t.c+t.e,s=this.x*t.b+this.y*t.d+t.f;return new x(e,s)}}class g{constructor(t,e,s,r,n,o){void 0===t?(this.a=1,this.b=0,this.c=0,this.d=1,this.e=0,this.f=0):(this.a=t,this.b=e,this.c=s,this.d=r,this.e=n,this.f=o)}toString(){return`affine: ${this.a} ${this.c} ${this.e} \n       ${this.b} ${this.d} ${this.f}`}append(t){t instanceof g||console.error(&quot;mesh.js: argument to Affine.append is not affine!&quot;);let e=this.a*t.a+this.c*t.b,s=this.b*t.a+this.d*t.b,r=this.a*t.c+this.c*t.d,n=this.b*t.c+this.d*t.d,o=this.a*t.e+this.c*t.f+this.e,i=this.b*t.e+this.d*t.f+this.f;return new g(e,s,r,n,o,i)}}class w{constructor(t,e){this.nodes=t,this.colors=e}paintCurve(t,e){if(o(this.nodes)&gt;r){const s=n(...this.nodes);let r=[[],[]],o=[[],[]];for(let t=0;t&lt;4;++t)r[0][t]=this.colors[0][t],r[1][t]=(this.colors[0][t]+this.colors[1][t])/2,o[0][t]=r[1][t],o[1][t]=this.colors[1][t];let i=new w(s[0],r),a=new w(s[1],o);i.paintCurve(t,e),a.paintCurve(t,e)}else{let s=Math.round(this.nodes[0].x);if(s&gt;=0&amp;&amp;s&lt;e){let r=4*(~~this.nodes[0].y*e+s);t[r]=Math.round(this.colors[0][0]),t[r+1]=Math.round(this.colors[0][1]),t[r+2]=Math.round(this.colors[0][2]),t[r+3]=Math.round(this.colors[0][3])}}}}class m{constructor(t,e){this.nodes=t,this.colors=e}split(){let t=[[],[],[],[]],e=[[],[],[],[]],s=[[[],[]],[[],[]]],r=[[[],[]],[[],[]]];for(let s=0;s&lt;4;++s){const r=n(this.nodes[0][s],this.nodes[1][s],this.nodes[2][s],this.nodes[3][s]);t[0][s]=r[0][0],t[1][s]=r[0][1],t[2][s]=r[0][2],t[3][s]=r[0][3],e[0][s]=r[1][0],e[1][s]=r[1][1],e[2][s]=r[1][2],e[3][s]=r[1][3]}for(let t=0;t&lt;4;++t)s[0][0][t]=this.colors[0][0][t],s[0][1][t]=this.colors[0][1][t],s[1][0][t]=(this.colors[0][0][t]+this.colors[1][0][t])/2,s[1][1][t]=(this.colors[0][1][t]+this.colors[1][1][t])/2,r[0][0][t]=s[1][0][t],r[0][1][t]=s[1][1][t],r[1][0][t]=this.colors[1][0][t],r[1][1][t]=this.colors[1][1][t];return[new m(t,s),new m(e,r)]}paint(t,e){let s,n=!1;for(let t=0;t&lt;4;++t)if((s=o([this.nodes[0][t],this.nodes[1][t],this.nodes[2][t],this.nodes[3][t]]))&gt;r){n=!0;break}if(n){let s=this.split();s[0].paint(t,e),s[1].paint(t,e)}else{new w([...this.nodes[0]],[...this.colors[0]]).paintCurve(t,e)}}}class b{constructor(t){this.readMesh(t),this.type=t.getAttribute(&quot;type&quot;)||&quot;bilinear&quot;}readMesh(t){let e=[[]],s=[[]],r=Number(t.getAttribute(&quot;x&quot;)),n=Number(t.getAttribute(&quot;y&quot;));e[0][0]=new x(r,n);let o=t.children;for(let t=0,r=o.length;t&lt;r;++t){e[3*t+1]=[],e[3*t+2]=[],e[3*t+3]=[],s[t+1]=[];let r=o[t].children;for(let n=0,o=r.length;n&lt;o;++n){let o=r[n].children;for(let r=0,i=o.length;r&lt;i;++r){let i=r;0!==t&amp;&amp;++i;let h,d=o[r].getAttribute(&quot;path&quot;),c=&quot;l&quot;;null!=d&amp;&amp;(c=(h=d.match(/\s*([lLcC])\s*(.*)/))[1]);let u=l(h[2]);switch(c){case&quot;l&quot;:0===i?(e[3*t][3*n+3]=u[0].add(e[3*t][3*n]),e[3*t][3*n+1]=a(e[3*t][3*n],e[3*t][3*n+3]),e[3*t][3*n+2]=a(e[3*t][3*n+3],e[3*t][3*n])):1===i?(e[3*t+3][3*n+3]=u[0].add(e[3*t][3*n+3]),e[3*t+1][3*n+3]=a(e[3*t][3*n+3],e[3*t+3][3*n+3]),e[3*t+2][3*n+3]=a(e[3*t+3][3*n+3],e[3*t][3*n+3])):2===i?(0===n&amp;&amp;(e[3*t+3][3*n+0]=u[0].add(e[3*t+3][3*n+3])),e[3*t+3][3*n+1]=a(e[3*t+3][3*n],e[3*t+3][3*n+3]),e[3*t+3][3*n+2]=a(e[3*t+3][3*n+3],e[3*t+3][3*n])):(e[3*t+1][3*n]=a(e[3*t][3*n],e[3*t+3][3*n]),e[3*t+2][3*n]=a(e[3*t+3][3*n],e[3*t][3*n]));break;case&quot;L&quot;:0===i?(e[3*t][3*n+3]=u[0],e[3*t][3*n+1]=a(e[3*t][3*n],e[3*t][3*n+3]),e[3*t][3*n+2]=a(e[3*t][3*n+3],e[3*t][3*n])):1===i?(e[3*t+3][3*n+3]=u[0],e[3*t+1][3*n+3]=a(e[3*t][3*n+3],e[3*t+3][3*n+3]),e[3*t+2][3*n+3]=a(e[3*t+3][3*n+3],e[3*t][3*n+3])):2===i?(0===n&amp;&amp;(e[3*t+3][3*n+0]=u[0]),e[3*t+3][3*n+1]=a(e[3*t+3][3*n],e[3*t+3][3*n+3]),e[3*t+3][3*n+2]=a(e[3*t+3][3*n+3],e[3*t+3][3*n])):(e[3*t+1][3*n]=a(e[3*t][3*n],e[3*t+3][3*n]),e[3*t+2][3*n]=a(e[3*t+3][3*n],e[3*t][3*n]));break;case&quot;c&quot;:0===i?(e[3*t][3*n+1]=u[0].add(e[3*t][3*n]),e[3*t][3*n+2]=u[1].add(e[3*t][3*n]),e[3*t][3*n+3]=u[2].add(e[3*t][3*n])):1===i?(e[3*t+1][3*n+3]=u[0].add(e[3*t][3*n+3]),e[3*t+2][3*n+3]=u[1].add(e[3*t][3*n+3]),e[3*t+3][3*n+3]=u[2].add(e[3*t][3*n+3])):2===i?(e[3*t+3][3*n+2]=u[0].add(e[3*t+3][3*n+3]),e[3*t+3][3*n+1]=u[1].add(e[3*t+3][3*n+3]),0===n&amp;&amp;(e[3*t+3][3*n+0]=u[2].add(e[3*t+3][3*n+3]))):(e[3*t+2][3*n]=u[0].add(e[3*t+3][3*n]),e[3*t+1][3*n]=u[1].add(e[3*t+3][3*n]));break;case&quot;C&quot;:0===i?(e[3*t][3*n+1]=u[0],e[3*t][3*n+2]=u[1],e[3*t][3*n+3]=u[2]):1===i?(e[3*t+1][3*n+3]=u[0],e[3*t+2][3*n+3]=u[1],e[3*t+3][3*n+3]=u[2]):2===i?(e[3*t+3][3*n+2]=u[0],e[3*t+3][3*n+1]=u[1],0===n&amp;&amp;(e[3*t+3][3*n+0]=u[2])):(e[3*t+2][3*n]=u[0],e[3*t+1][3*n]=u[1]);break;default:console.error(&quot;mesh.js: &quot;+c+&quot; invalid path type.&quot;)}if(0===t&amp;&amp;0===n||r&gt;0){let e=window.getComputedStyle(o[r]).stopColor.match(/^rgb\s*\(\s*(\d+)\s*,\s*(\d+)\s*,\s*(\d+)\s*\)$/i),a=window.getComputedStyle(o[r]).stopOpacity,h=255;a&amp;&amp;(h=Math.floor(255*a)),e&amp;&amp;(0===i?(s[t][n]=[],s[t][n][0]=Math.floor(e[1]),s[t][n][1]=Math.floor(e[2]),s[t][n][2]=Math.floor(e[3]),s[t][n][3]=h):1===i?(s[t][n+1]=[],s[t][n+1][0]=Math.floor(e[1]),s[t][n+1][1]=Math.floor(e[2]),s[t][n+1][2]=Math.floor(e[3]),s[t][n+1][3]=h):2===i?(s[t+1][n+1]=[],s[t+1][n+1][0]=Math.floor(e[1]),s[t+1][n+1][1]=Math.floor(e[2]),s[t+1][n+1][2]=Math.floor(e[3]),s[t+1][n+1][3]=h):3===i&amp;&amp;(s[t+1][n]=[],s[t+1][n][0]=Math.floor(e[1]),s[t+1][n][1]=Math.floor(e[2]),s[t+1][n][2]=Math.floor(e[3]),s[t+1][n][3]=h))}}e[3*t+1][3*n+1]=new x,e[3*t+1][3*n+2]=new x,e[3*t+2][3*n+1]=new x,e[3*t+2][3*n+2]=new x,e[3*t+1][3*n+1].x=(-4*e[3*t][3*n].x+6*(e[3*t][3*n+1].x+e[3*t+1][3*n].x)+-2*(e[3*t][3*n+3].x+e[3*t+3][3*n].x)+3*(e[3*t+3][3*n+1].x+e[3*t+1][3*n+3].x)+-1*e[3*t+3][3*n+3].x)/9,e[3*t+1][3*n+2].x=(-4*e[3*t][3*n+3].x+6*(e[3*t][3*n+2].x+e[3*t+1][3*n+3].x)+-2*(e[3*t][3*n].x+e[3*t+3][3*n+3].x)+3*(e[3*t+3][3*n+2].x+e[3*t+1][3*n].x)+-1*e[3*t+3][3*n].x)/9,e[3*t+2][3*n+1].x=(-4*e[3*t+3][3*n].x+6*(e[3*t+3][3*n+1].x+e[3*t+2][3*n].x)+-2*(e[3*t+3][3*n+3].x+e[3*t][3*n].x)+3*(e[3*t][3*n+1].x+e[3*t+2][3*n+3].x)+-1*e[3*t][3*n+3].x)/9,e[3*t+2][3*n+2].x=(-4*e[3*t+3][3*n+3].x+6*(e[3*t+3][3*n+2].x+e[3*t+2][3*n+3].x)+-2*(e[3*t+3][3*n].x+e[3*t][3*n+3].x)+3*(e[3*t][3*n+2].x+e[3*t+2][3*n].x)+-1*e[3*t][3*n].x)/9,e[3*t+1][3*n+1].y=(-4*e[3*t][3*n].y+6*(e[3*t][3*n+1].y+e[3*t+1][3*n].y)+-2*(e[3*t][3*n+3].y+e[3*t+3][3*n].y)+3*(e[3*t+3][3*n+1].y+e[3*t+1][3*n+3].y)+-1*e[3*t+3][3*n+3].y)/9,e[3*t+1][3*n+2].y=(-4*e[3*t][3*n+3].y+6*(e[3*t][3*n+2].y+e[3*t+1][3*n+3].y)+-2*(e[3*t][3*n].y+e[3*t+3][3*n+3].y)+3*(e[3*t+3][3*n+2].y+e[3*t+1][3*n].y)+-1*e[3*t+3][3*n].y)/9,e[3*t+2][3*n+1].y=(-4*e[3*t+3][3*n].y+6*(e[3*t+3][3*n+1].y+e[3*t+2][3*n].y)+-2*(e[3*t+3][3*n+3].y+e[3*t][3*n].y)+3*(e[3*t][3*n+1].y+e[3*t+2][3*n+3].y)+-1*e[3*t][3*n+3].y)/9,e[3*t+2][3*n+2].y=(-4*e[3*t+3][3*n+3].y+6*(e[3*t+3][3*n+2].y+e[3*t+2][3*n+3].y)+-2*(e[3*t+3][3*n].y+e[3*t][3*n+3].y)+3*(e[3*t][3*n+2].y+e[3*t+2][3*n].y)+-1*e[3*t][3*n].y)/9}}this.nodes=e,this.colors=s}paintMesh(t,e){let s=(this.nodes.length-1)/3,r=(this.nodes[0].length-1)/3;if(&quot;bilinear&quot;===this.type||s&lt;2||r&lt;2){let n;for(let o=0;o&lt;s;++o)for(let s=0;s&lt;r;++s){let r=[];for(let t=3*o,e=3*o+4;t&lt;e;++t)r.push(this.nodes[t].slice(3*s,3*s+4));let i=[];i.push(this.colors[o].slice(s,s+2)),i.push(this.colors[o+1].slice(s,s+2)),(n=new m(r,i)).paint(t,e)}}else{let n,o,a,h,l,d,u;const x=s,g=r;s++,r++;let w=new Array(s);for(let t=0;t&lt;s;++t){w[t]=new Array(r);for(let e=0;e&lt;r;++e)w[t][e]=[],w[t][e][0]=this.nodes[3*t][3*e],w[t][e][1]=this.colors[t][e]}for(let t=0;t&lt;s;++t)for(let e=0;e&lt;r;++e)0!==t&amp;&amp;t!==x&amp;&amp;(n=i(w[t-1][e][0],w[t][e][0]),o=i(w[t+1][e][0],w[t][e][0]),w[t][e][2]=c(w[t-1][e][1],w[t][e][1],w[t+1][e][1],n,o)),0!==e&amp;&amp;e!==g&amp;&amp;(n=i(w[t][e-1][0],w[t][e][0]),o=i(w[t][e+1][0],w[t][e][0]),w[t][e][3]=c(w[t][e-1][1],w[t][e][1],w[t][e+1][1],n,o));for(let t=0;t&lt;r;++t){w[0][t][2]=[],w[x][t][2]=[];for(let e=0;e&lt;4;++e)n=i(w[1][t][0],w[0][t][0]),o=i(w[x][t][0],w[x-1][t][0]),w[0][t][2][e]=n&gt;0?2*(w[1][t][1][e]-w[0][t][1][e])/n-w[1][t][2][e]:0,w[x][t][2][e]=o&gt;0?2*(w[x][t][1][e]-w[x-1][t][1][e])/o-w[x-1][t][2][e]:0}for(let t=0;t&lt;s;++t){w[t][0][3]=[],w[t][g][3]=[];for(let e=0;e&lt;4;++e)n=i(w[t][1][0],w[t][0][0]),o=i(w[t][g][0],w[t][g-1][0]),w[t][0][3][e]=n&gt;0?2*(w[t][1][1][e]-w[t][0][1][e])/n-w[t][1][3][e]:0,w[t][g][3][e]=o&gt;0?2*(w[t][g][1][e]-w[t][g-1][1][e])/o-w[t][g-1][3][e]:0}for(let s=0;s&lt;x;++s)for(let r=0;r&lt;g;++r){let n=i(w[s][r][0],w[s+1][r][0]),o=i(w[s][r+1][0],w[s+1][r+1][0]),c=i(w[s][r][0],w[s][r+1][0]),x=i(w[s+1][r][0],w[s+1][r+1][0]),g=[[],[],[],[]];for(let t=0;t&lt;4;++t){(d=[])[0]=w[s][r][1][t],d[1]=w[s+1][r][1][t],d[2]=w[s][r+1][1][t],d[3]=w[s+1][r+1][1][t],d[4]=w[s][r][2][t]*n,d[5]=w[s+1][r][2][t]*n,d[6]=w[s][r+1][2][t]*o,d[7]=w[s+1][r+1][2][t]*o,d[8]=w[s][r][3][t]*c,d[9]=w[s+1][r][3][t]*x,d[10]=w[s][r+1][3][t]*c,d[11]=w[s+1][r+1][3][t]*x,d[12]=0,d[13]=0,d[14]=0,d[15]=0,u=f(d);for(let e=0;e&lt;9;++e){g[t][e]=[];for(let s=0;s&lt;9;++s)g[t][e][s]=p(u,e/8,s/8),g[t][e][s]&gt;255?g[t][e][s]=255:g[t][e][s]&lt;0&amp;&amp;(g[t][e][s]=0)}}h=[];for(let t=3*s,e=3*s+4;t&lt;e;++t)h.push(this.nodes[t].slice(3*r,3*r+4));l=y(h);for(let s=0;s&lt;8;++s)for(let r=0;r&lt;8;++r)(a=new m(l[s][r],[[[g[0][s][r],g[1][s][r],g[2][s][r],g[3][s][r]],[g[0][s][r+1],g[1][s][r+1],g[2][s][r+1],g[3][s][r+1]]],[[g[0][s+1][r],g[1][s+1][r],g[2][s+1][r],g[3][s+1][r]],[g[0][s+1][r+1],g[1][s+1][r+1],g[2][s+1][r+1],g[3][s+1][r+1]]]])).paint(t,e)}}}transform(t){if(t instanceof x)for(let e=0,s=this.nodes.length;e&lt;s;++e)for(let s=0,r=this.nodes[0].length;s&lt;r;++s)this.nodes[e][s]=this.nodes[e][s].add(t);else if(t instanceof g)for(let e=0,s=this.nodes.length;e&lt;s;++e)for(let s=0,r=this.nodes[0].length;s&lt;r;++s)this.nodes[e][s]=this.nodes[e][s].transform(t)}scale(t){for(let e=0,s=this.nodes.length;e&lt;s;++e)for(let s=0,r=this.nodes[0].length;s&lt;r;++s)this.nodes[e][s]=this.nodes[e][s].scale(t)}}document.querySelectorAll(&quot;rect,circle,ellipse,path,text&quot;).forEach((r,n)=&gt;{let o=r.getAttribute(&quot;id&quot;);o||(o=&quot;patchjs_shape&quot;+n,r.setAttribute(&quot;id&quot;,o));const i=r.style.fill.match(/^url\(\s*&quot;?\s*#([^\s&quot;]+)&quot;?\s*\)/),a=r.style.stroke.match(/^url\(\s*&quot;?\s*#([^\s&quot;]+)&quot;?\s*\)/);if(i&amp;&amp;i[1]){const a=document.getElementById(i[1]);if(a&amp;&amp;&quot;meshgradient&quot;===a.nodeName){const i=r.getBBox();let l=document.createElementNS(s,&quot;canvas&quot;);d(l,{width:i.width,height:i.height});const c=l.getContext(&quot;2d&quot;);let u=c.createImageData(i.width,i.height);const f=new b(a);&quot;objectBoundingBox&quot;===a.getAttribute(&quot;gradientUnits&quot;)&amp;&amp;f.scale(new x(i.width,i.height));const p=a.getAttribute(&quot;gradientTransform&quot;);null!=p&amp;&amp;f.transform(h(p)),&quot;userSpaceOnUse&quot;===a.getAttribute(&quot;gradientUnits&quot;)&amp;&amp;f.transform(new x(-i.x,-i.y)),f.paintMesh(u.data,l.width),c.putImageData(u,0,0);const y=document.createElementNS(t,&quot;image&quot;);d(y,{width:i.width,height:i.height,x:i.x,y:i.y});let g=l.toDataURL();y.setAttributeNS(e,&quot;xlink:href&quot;,g),r.parentNode.insertBefore(y,r),r.style.fill=&quot;none&quot;;const w=document.createElementNS(t,&quot;use&quot;);w.setAttributeNS(e,&quot;xlink:href&quot;,&quot;#&quot;+o);const m=&quot;patchjs_clip&quot;+n,M=document.createElementNS(t,&quot;clipPath&quot;);M.setAttribute(&quot;id&quot;,m),M.appendChild(w),r.parentElement.insertBefore(M,r),y.setAttribute(&quot;clip-path&quot;,&quot;url(#&quot;+m+&quot;)&quot;),u=null,l=null,g=null}}if(a&amp;&amp;a[1]){const o=document.getElementById(a[1]);if(o&amp;&amp;&quot;meshgradient&quot;===o.nodeName){const i=parseFloat(r.style.strokeWidth.slice(0,-2))*(parseFloat(r.style.strokeMiterlimit)||parseFloat(r.getAttribute(&quot;stroke-miterlimit&quot;))||1),a=r.getBBox(),l=Math.trunc(a.width+i),c=Math.trunc(a.height+i),u=Math.trunc(a.x-i/2),f=Math.trunc(a.y-i/2);let p=document.createElementNS(s,&quot;canvas&quot;);d(p,{width:l,height:c});const y=p.getContext(&quot;2d&quot;);let g=y.createImageData(l,c);const w=new b(o);&quot;objectBoundingBox&quot;===o.getAttribute(&quot;gradientUnits&quot;)&amp;&amp;w.scale(new x(l,c));const m=o.getAttribute(&quot;gradientTransform&quot;);null!=m&amp;&amp;w.transform(h(m)),&quot;userSpaceOnUse&quot;===o.getAttribute(&quot;gradientUnits&quot;)&amp;&amp;w.transform(new x(-u,-f)),w.paintMesh(g.data,p.width),y.putImageData(g,0,0);const M=document.createElementNS(t,&quot;image&quot;);d(M,{width:l,height:c,x:0,y:0});let S=p.toDataURL();M.setAttributeNS(e,&quot;xlink:href&quot;,S);const k=&quot;pattern_clip&quot;+n,A=document.createElementNS(t,&quot;pattern&quot;);d(A,{id:k,patternUnits:&quot;userSpaceOnUse&quot;,width:l,height:c,x:u,y:f}),A.appendChild(M),o.parentNode.appendChild(A),r.style.stroke=&quot;url(#&quot;+k+&quot;)&quot;,g=null,p=null,S=null}}})}();&#10;</script></svg>
